<svg viewBox="0 0 72 72" xmlns="http://www.w3.org/2000/svg"><path d="m36 70c-2.5 0-5.1-.5-7.7-1.5-5.2-2.1-10.1-6.1-13.7-11.3-3.8-5.4-5.9-11.6-5.9-17.4 0-2.7.4-5.4 1.3-7.9.3-9 1.9-15.5 5.1-20.2 4.3-6.5 11.1-9.7 20.9-9.7 9.7 0 16.6 3.2 20.9 9.6 3.2 4.8 4.8 11.2 5.1 20.2.9 2.5 1.4 5.2 1.4 8 0 5.9-2.1 12.1-5.9 17.4-3.6 5-8.6 9.1-13.7 11.1-2.7 1.1-5.3 1.7-7.8 1.7zm0-58.7c-6.4 0-10.7 1.8-13.1 5.5-2.2 3.3-3.4 8.4-3.6 16.1v.9l-.3.8c-.7 1.6-1 3.4-1 5.2 0 3.9 1.5 8.2 4.3 12.1 2.6 3.7 6.1 6.6 9.6 8 1.4.6 2.8.9 4.2.9 1.3 0 2.8-.3 4.3-.9 3.5-1.4 7-4.3 9.6-7.9 2.7-3.8 4.2-8 4.2-12 0-1.9-.4-3.7-1-5.4l-.3-.8v-.9c-.2-7.6-1.3-12.7-3.6-16-2.6-3.8-7-5.6-13.3-5.6z" fill="#fff"/><path d="m11.3 32.1c.3-7.7 1.4-14.5 4.9-19.7 3.7-5.6 9.9-9 19.8-9s16 3.4 19.8 9c3.4 5.2 4.6 12 4.9 19.7 1 2.6 1.4 5.2 1.4 7.8 0 6-2.2 11.8-5.6 16.6s-8.1 8.7-13.1 10.6c-2.4.9-4.8 1.5-7.3 1.5-2.4 0-4.8-.5-7.2-1.4-5-2-9.7-5.9-13.1-10.8-3.5-4.9-5.8-10.8-5.8-16.7 0-2.6.4-5.1 1.3-7.6zm10.4-16.1c-2.7 4.1-3.6 10-3.8 16.8v.6l-.3.6c-.7 1.9-1.1 3.8-1.1 5.7 0 4.5 1.8 9 4.5 12.9s6.4 7 10.2 8.5c1.6.6 3.2 1 4.7 1 1.6 0 3.2-.4 4.8-1 3.8-1.5 7.5-4.5 10.2-8.4 2.7-3.8 4.4-8.3 4.4-12.8 0-2-.4-4-1.1-5.9l-.2-.6v-.6c-.1-6.8-1-12.7-3.7-16.8-2.5-3.8-6.9-6.1-14.3-6.1s-11.8 2.4-14.3 6.1z" fill="#2c3a39"/><g clip-rule="evenodd" fill-rule="evenodd"><path d="m14.6 32.7c.4-14.6 4.1-26 21.4-26s21 11.4 21.4 26.1c6 14.9-8.6 32.6-21.4 32.6s-27.1-18.4-21.4-32.7z" fill="#fefefe"/><path d="m49.5 10.5c5.9 4.5 7.6 12.7 7.9 22.3 6 14.9-8.6 32.6-21.4 32.6-2.7 0-5.4-.8-8.1-2.2-8.6-6.2-14.9-18.6-10.8-28.9.4-14.6 4.1-26 21.4-26.1 4.5 0 8.1.8 11 2.3z" fill="#b1a58a"/><path d="m49.5 10.5c5.9 4.5 7.6 12.7 7.9 22.3 5.8 14.5-8 31.7-20.5 32.6v-57.1h1.6c4.5-.1 8.1.7 11 2.2z" fill="#928a7a"/><path d="m30.3 18c.8.4 1.2 1.3.8 2.2-.4.8-1.3 1.2-2.2.8-.8-.4-1.2-1.3-.8-2.2.5-.8 1.4-1.2 2.2-.8zm.3 28.7c.8.4 1.2 1.3.8 2.2-.4.8-1.4 1.1-2.2.7s-1.2-1.3-.8-2.2c.4-.7 1.3-1.1 2.2-.7zm-3.9-5.2c.8.4 1.2 1.4.8 2.2s-1.3 1.2-2.2.8c-.8-.4-1.2-1.3-.8-2.2.4-.8 1.3-1.2 2.2-.8zm-2.6 5.6c.8.4 1.2 1.3.8 2.2-.4.8-1.3 1.2-2.2.8-.8-.4-1.2-1.4-.8-2.2s1.4-1.2 2.2-.8zm3.9 5.2c.8.4 1.2 1.3.8 2.2-.4.8-1.3 1.2-2.2.8-.8-.4-1.2-1.3-.8-2.1.4-.9 1.4-1.3 2.2-.9zm6.2-31.4c.9 0 1.6.8 1.5 1.7 0 .9-.8 1.6-1.7 1.6s-1.6-.8-1.5-1.7c0-.9.8-1.6 1.7-1.6zm.2-6.1c.9 0 1.6.8 1.5 1.7 0 .9-.8 1.6-1.7 1.5-.9 0-1.6-.8-1.5-1.7s.8-1.6 1.7-1.5zm-1.3 26.3c.8.4 1.2 1.3.8 2.2-.4.8-1.3 1.2-2.2.8-.8-.4-1.2-1.4-.8-2.2s1.4-1.2 2.2-.8z" fill="#fefefe"/><path d="m55.1 52.4c-4.4 7.4-12.1 12.9-19.1 12.9-1.7 0-3.5-.3-5.2-.9 3.5-.2 5.5-2.5 6.1-6.6v-47c1 7.2 3.1 14.4 10.7 14.7 10.4.3 9.4 15.1 1.6 15.6-10.4.6-9.2 7.5-9.2 10.4-.3 7 9.3 7.1 15.1.9z" fill="#7c766b"/><path d="m49.2 38.5c-5.8-.9-10.3-6.5-10.3-9.2 0-2.8 4.4-3.8 8.7-3.1 8.3 1.3 7.4 13.3 1.6 12.3zm-.8 8.4c.8-.4 1.8 0 2.2.8s0 1.8-.8 2.2-1.8 0-2.2-.8c-.3-.9 0-1.9.8-2.2zm-2.5-5.6c.8-.4 1.8 0 2.2.8s0 1.8-.8 2.2-1.8 0-2.2-.8c-.4-.9 0-1.8.8-2.2zm-1.4 10.7c.8-.4 1.8 0 2.2.8s0 1.8-.8 2.2-1.8 0-2.2-.8 0-1.8.8-2.2zm-2.5-5.6c.8-.4 1.8 0 2.2.8s0 1.8-.8 2.2-1.8 0-2.2-.8-.1-1.8.8-2.2zm-2.6-5.5c.8-.4 1.8 0 2.2.8s0 1.8-.8 2.2-1.8 0-2.2-.8c-.4-.9 0-1.9.8-2.2zm5.3-23.2c.8-.4 1.8 0 2.2.8s0 1.8-.8 2.2-1.8 0-2.2-.8 0-1.8.8-2.2zm-3.8 3c.9 0 1.7.7 1.7 1.6s-.7 1.7-1.5 1.7c-.9 0-1.7-.7-1.7-1.5-.1-1 .6-1.8 1.5-1.8zm-.3-6.2c.9 0 1.7.7 1.7 1.5 0 .9-.7 1.7-1.5 1.7-.9 0-1.7-.7-1.7-1.6-.1-.8.6-1.6 1.5-1.6zm-10.8 3.2c.8.4 1.2 1.4.8 2.2s-1.4 1.2-2.2.8-1.2-1.4-.8-2.2 1.4-1.1 2.2-.8zm.2 28.7c.8.4 1.2 1.4.8 2.2s-1.3 1.2-2.2.8c-.8-.4-1.2-1.3-.8-2.2.4-.8 1.4-1.1 2.2-.8zm-3.9-5.1c.8.4 1.2 1.3.8 2.2-.4.8-1.3 1.2-2.2.8-.8-.4-1.2-1.3-.8-2.2.4-.8 1.4-1.2 2.2-.8zm-2.5 5.6c.8.4 1.2 1.3.8 2.2-.4.8-1.3 1.2-2.2.8-.8-.4-1.2-1.3-.8-2.2s1.4-1.2 2.2-.8zm3.9 5.1c.8.4 1.2 1.3.8 2.2-.4.8-1.4 1.2-2.2.8s-1.2-1.4-.8-2.2 1.3-1.2 2.2-.8zm6.1-31.3c.9 0 1.6.8 1.6 1.7s-.8 1.6-1.7 1.5c-.9 0-1.6-.8-1.6-1.7.1-.9.8-1.6 1.7-1.5zm.3-6.2c.9 0 1.6.8 1.6 1.7s-.8 1.6-1.7 1.6-1.6-.8-1.6-1.7.8-1.6 1.7-1.6zm-1.3 26.4c.8.4 1.2 1.3.8 2.2-.4.8-1.3 1.2-2.2.8-.8-.4-1.2-1.3-.8-2.2s1.4-1.2 2.2-.8z" fill="#2c3a39"/><path d="m23.3 40.2c6.3-1 11.1-7 11.1-10s-4.8-4.1-9.3-3.3c-8.9 1.4-8 14.3-1.8 13.3z" fill="#fefefe"/><path d="m22.8 38.5c5.8-.9 10.3-6.5 10.3-9.2 0-2.8-4.4-3.8-8.6-3.1-8.3 1.3-7.5 13.3-1.7 12.3z" fill="#2c3a39"/></g></svg>